<mxfile host="Electron" modified="2024-06-03T09:21:39.415Z" agent="Mozilla/5.0 (Windows NT 10.0; Win64; x64) AppleWebKit/537.36 (KHTML, like Gecko) draw.io/24.4.8 Chrome/124.0.6367.207 Electron/30.0.6 Safari/537.36" etag="JVei8jR1zOiOarfGzHbE" version="24.4.8" type="device">
  <diagram name="Page-1" id="lDwgoUdHp61VGgvie9R6">
    <mxGraphModel dx="1036" dy="606" grid="1" gridSize="10" guides="1" tooltips="1" connect="1" arrows="1" fold="1" page="1" pageScale="1" pageWidth="850" pageHeight="1100" math="0" shadow="0">
      <root>
        <mxCell id="0" />
        <mxCell id="1" parent="0" />
        <mxCell id="twbBR0jjznHiogXrfPrA-1" value="Parking&amp;nbsp;&lt;div&gt;Manager&lt;/div&gt;" style="shape=umlActor;verticalLabelPosition=bottom;verticalAlign=top;html=1;outlineConnect=0;" vertex="1" parent="1">
          <mxGeometry x="80" y="70" width="30" height="60" as="geometry" />
        </mxCell>
        <mxCell id="twbBR0jjznHiogXrfPrA-2" value="System" style="rounded=1;whiteSpace=wrap;html=1;fillColor=#dae8fc;strokeColor=#6c8ebf;" vertex="1" parent="1">
          <mxGeometry x="240" y="120" width="78.75" height="40" as="geometry" />
        </mxCell>
        <mxCell id="twbBR0jjznHiogXrfPrA-6" value="" style="html=1;points=[[0,0,0,0,5],[0,1,0,0,-5],[1,0,0,0,5],[1,1,0,0,-5]];perimeter=orthogonalPerimeter;outlineConnect=0;targetShapes=umlLifeline;portConstraint=eastwest;newEdgeStyle={&quot;curved&quot;:0,&quot;rounded&quot;:0};fillColor=#dae8fc;strokeColor=#6c8ebf;" vertex="1" parent="1">
          <mxGeometry x="269.38" y="170" width="20" height="560" as="geometry" />
        </mxCell>
        <mxCell id="twbBR0jjznHiogXrfPrA-17" value="Database" style="rounded=1;whiteSpace=wrap;html=1;fillColor=#dae8fc;strokeColor=#6c8ebf;" vertex="1" parent="1">
          <mxGeometry x="430" y="120" width="78.75" height="40" as="geometry" />
        </mxCell>
        <mxCell id="twbBR0jjznHiogXrfPrA-18" value="" style="html=1;points=[[0,0,0,0,5],[0,1,0,0,-5],[1,0,0,0,5],[1,1,0,0,-5]];perimeter=orthogonalPerimeter;outlineConnect=0;targetShapes=umlLifeline;portConstraint=eastwest;newEdgeStyle={&quot;curved&quot;:0,&quot;rounded&quot;:0};fillColor=#dae8fc;strokeColor=#6c8ebf;" vertex="1" parent="1">
          <mxGeometry x="90" y="170" width="20" height="560" as="geometry" />
        </mxCell>
        <mxCell id="twbBR0jjznHiogXrfPrA-19" value="" style="endArrow=block;html=1;rounded=0;endFill=0;" edge="1" parent="1" source="twbBR0jjznHiogXrfPrA-18" target="twbBR0jjznHiogXrfPrA-6">
          <mxGeometry width="50" height="50" relative="1" as="geometry">
            <mxPoint x="330" y="200" as="sourcePoint" />
            <mxPoint x="280" y="250" as="targetPoint" />
            <Array as="points">
              <mxPoint x="200" y="200" />
              <mxPoint x="240" y="200" />
            </Array>
          </mxGeometry>
        </mxCell>
        <mxCell id="twbBR0jjznHiogXrfPrA-20" value="Log in" style="text;html=1;align=center;verticalAlign=middle;resizable=0;points=[];autosize=1;strokeColor=none;fillColor=none;" vertex="1" parent="1">
          <mxGeometry x="150" y="168" width="60" height="30" as="geometry" />
        </mxCell>
        <mxCell id="twbBR0jjznHiogXrfPrA-21" value="" style="endArrow=block;html=1;rounded=0;endFill=0;" edge="1" parent="1">
          <mxGeometry width="50" height="50" relative="1" as="geometry">
            <mxPoint x="269.38" y="240" as="sourcePoint" />
            <mxPoint x="110.38" y="240" as="targetPoint" />
            <Array as="points">
              <mxPoint x="240.38" y="240" />
              <mxPoint x="200.38" y="240" />
            </Array>
          </mxGeometry>
        </mxCell>
        <mxCell id="twbBR0jjznHiogXrfPrA-22" value="Display Dashboard" style="text;html=1;align=center;verticalAlign=middle;resizable=0;points=[];autosize=1;strokeColor=none;fillColor=none;" vertex="1" parent="1">
          <mxGeometry x="125" y="208" width="120" height="30" as="geometry" />
        </mxCell>
      </root>
    </mxGraphModel>
  </diagram>
</mxfile>
